<?xml version="1.0" encoding="UTF-8" standalone="no"?>
<svg
   xmlns:dc="http://purl.org/dc/elements/1.1/"
   xmlns:cc="http://creativecommons.org/ns#"
   xmlns:rdf="http://www.w3.org/1999/02/22-rdf-syntax-ns#"
   xmlns:svg="http://www.w3.org/2000/svg"
   xmlns="http://www.w3.org/2000/svg"
   xmlns:sodipodi="http://sodipodi.sourceforge.net/DTD/sodipodi-0.dtd"
   xmlns:inkscape="http://www.inkscape.org/namespaces/inkscape"
   width="210mm"
   height="297mm"
   viewBox="0 0 210 297"
   version="1.1"
   id="svg8"
   inkscape:version="1.0.1 (3bc2e813f5, 2020-09-07)"
   sodipodi:docname="drawing.svg">
  <defs
     id="defs2">
    <rect
       x="432.33021"
       y="138.62418"
       width="701.98272"
       height="443.72398"
       id="rect2668" />
    <rect
       x="-293.07304"
       y="200.65692"
       width="652.60973"
       height="516.51749"
       id="rect2662" />
    <rect
       x="-6.3298713"
       y="111.40573"
       width="4.4309099"
       height="30.383382"
       id="rect2656" />
    <rect
       x="-81.022352"
       y="10.760781"
       width="24.053511"
       height="14.558704"
       id="rect2640" />
    <rect
       x="-265.85459"
       y="1.8989614"
       width="672.23233"
       height="139.25717"
       id="rect2634" />
    <rect
       x="-294.972"
       y="-48.107022"
       width="102.54391"
       height="47.474034"
       id="rect2628" />
    <rect
       x="149.00065"
       y="134.89408"
       width="7.9349458"
       height="20.278195"
       id="rect2618" />
    <rect
       x="-155.17227"
       y="55.54462"
       width="405.56389"
       height="203.66361"
       id="rect2612" />
    <inkscape:path-effect
       effect="bspline"
       id="path-effect917"
       is_visible="true"
       lpeversion="1"
       weight="33.333333"
       steps="2"
       helper_size="0"
       apply_no_weight="true"
       apply_with_weight="true"
       only_selected="false" />
    <inkscape:path-effect
       effect="bspline"
       id="path-effect913"
       is_visible="true"
       lpeversion="1"
       weight="33.333333"
       steps="2"
       helper_size="0"
       apply_no_weight="true"
       apply_with_weight="true"
       only_selected="false" />
    <inkscape:path-effect
       effect="bspline"
       id="path-effect888"
       is_visible="true"
       lpeversion="1"
       weight="33.333333"
       steps="2"
       helper_size="0"
       apply_no_weight="true"
       apply_with_weight="true"
       only_selected="false" />
    <inkscape:path-effect
       effect="bspline"
       id="path-effect882"
       is_visible="true"
       lpeversion="1"
       weight="33.333333"
       steps="2"
       helper_size="0"
       apply_no_weight="true"
       apply_with_weight="true"
       only_selected="false" />
  </defs>
  <sodipodi:namedview
     id="base"
     pagecolor="#ffffff"
     bordercolor="#666666"
     borderopacity="1.0"
     inkscape:pageopacity="0.0"
     inkscape:pageshadow="2"
     inkscape:zoom="0.41799165"
     inkscape:cx="-183.17626"
     inkscape:cy="12.670455"
     inkscape:document-units="mm"
     inkscape:current-layer="layer2"
     inkscape:document-rotation="0"
     showgrid="false"
     inkscape:object-nodes="false"
     inkscape:window-width="1920"
     inkscape:window-height="1001"
     inkscape:window-x="-9"
     inkscape:window-y="-9"
     inkscape:window-maximized="1" />
  <metadata
     id="metadata5">
    <rdf:RDF>
      <cc:Work
         rdf:about="">
        <dc:format>image/svg+xml</dc:format>
        <dc:type
           rdf:resource="http://purl.org/dc/dcmitype/StillImage" />
        <dc:title></dc:title>
      </cc:Work>
    </rdf:RDF>
  </metadata>
  <g
     inkscape:groupmode="layer"
     id="layer2"
     inkscape:label="Background" />
  <g
     inkscape:label="Layer 1"
     inkscape:groupmode="layer"
     id="layer1"
     style="display:inline">
    <ellipse
       style="fill:#ffff00;stroke-width:0.141288"
       id="path36"
       cx="49.563789"
       cy="10.975218"
       rx="78.18779"
       ry="58.186859" />
    <ellipse
       style="fill:#ffff00;stroke:#ffffff;stroke-width:3.06197;stroke-miterlimit:4;stroke-dasharray:none;stroke-opacity:1"
       id="path42"
       cx="48.051277"
       cy="-61.798805"
       rx="58.00853"
       ry="49.138012" />
    <ellipse
       style="fill:#ffff00;stroke-width:0.15907"
       id="path48"
       cx="45.999672"
       cy="-45.820717"
       rx="17.597822"
       ry="5.5636835" />
    <path
       style="opacity:0;fill:#ffffff;stroke-width:0.0803429"
       d="m 43.33016,-32.368626 c -6.51367,-0.716548 -12.188491,-3.589698 -18.330595,-9.280751 -0.508964,-0.471587 -0.92539,-0.884443 -0.92539,-0.917458 0,-0.08645 4.239336,-3.752086 6.733688,-5.822432 6.847367,-5.68341 11.460577,-8.972637 13.671377,-9.747701 1.03507,-0.362876 1.91682,-0.169221 3.89325,0.85506 1.43544,0.743919 2.82184,1.610577 4.74525,2.966313 3.55401,2.505091 8.42042,6.41277 11.50474,9.238192 0.87219,0.798977 0.89327,0.826368 0.84988,1.104594 -0.12427,0.796966 -1.85221,3.04369 -3.58113,4.656322 -3.91666,3.653207 -8.53574,5.983698 -13.40221,6.761878 -0.79828,0.127656 -1.53491,0.176372 -2.95368,0.195354 -1.03958,0.01392 -2.03192,0.0097 -2.20518,-0.0094 z"
       id="path68" />
    <ellipse
       style="fill:#ffffff;stroke-width:0.264583"
       id="path28"
       cx="517.04614"
       cy="13.425972"
       rx="125.11012"
       ry="81.264877" />
    <path
       style="fill:none;stroke:#000000;stroke-width:0.264583px;stroke-linecap:butt;stroke-linejoin:miter;stroke-opacity:1"
       d="M -252.38851,131.36661 Z"
       id="path878" />
    <path
       style="fill:none;stroke:#f6f5f4;stroke-width:0.264583px;stroke-linecap:butt;stroke-linejoin:miter;stroke-opacity:1"
       d="m -254.32332,151.41828 c -0.99407,0 -1.99079,0 -2.70874,-0.10186 -0.71796,-0.10186 -1.15769,-0.30707 -1.62733,-0.78998 -0.46964,-0.48292 -0.96799,-1.24511 -1.21818,-1.81697 -0.25018,-0.57186 -0.25018,-0.95296 -0.25018,-1.45132 0,-0.49836 0,-1.11398 0.16158,-1.52594 0.16158,-0.41195 0.48404,-0.61716 0.64494,-0.76219 0.16089,-0.14504 0.16089,-0.23299 0.2047,-0.3367 0.0438,-0.10372 0.13177,-0.22098 0.22003,-0.33866"
       id="path880"
       inkscape:original-d="m -254.32332,151.41828 c -0.99407,0.003 -1.99079,0.003 -2.99016,0 -0.43708,-0.20256 -0.87681,-0.40777 -1.31919,-0.61562 -0.49571,-0.75956 -0.99407,-1.52175 -1.49508,-2.2866 0.003,-0.37845 0.003,-0.75955 0,-1.1433 0.003,-0.61297 0.003,-1.22859 0,-1.84686 0.32512,-0.20256 0.64758,-0.40777 0.96741,-0.61562 0.003,-0.0853 0.003,-0.17325 0,-0.26384 0.0906,-0.11461 0.17854,-0.23188 0.26384,-0.35178"
       inkscape:path-effect="#path-effect882" />
    <path
       style="opacity:1;fill:#f6f5f4;fill-opacity:1;stroke:#f6f5f4;stroke-width:0.0879459"
       d="m -261.36294,149.22402 1.03312,-2.07001 0.0579,0.6296 c 0.0967,1.0519 0.94751,2.48924 1.90639,3.2206 l 0.37998,0.28982 h -2.20524 -2.20524 z"
       id="path884" />
    <path
       style="fill:none;stroke:#f6f5f4;stroke-width:0.264583px;stroke-linecap:butt;stroke-linejoin:miter;stroke-opacity:1"
       d="m -215.62712,144.55849 c 0.14686,1.49796 0.29344,2.99304 0.33778,3.75354 0.0443,0.7605 -0.0143,0.78979 -0.059,0.86426 -0.0447,0.0745 -0.0741,0.19174 -0.22049,0.39608 -0.14642,0.20435 -0.41025,0.4975 -0.58634,0.73248 -0.1761,0.23498 -0.26404,0.41087 -0.33575,0.49829 -0.0717,0.0874 -0.13032,0.0874 -0.17584,0.14699 -0.0455,0.0596 -0.0748,0.17682 -0.19121,0.27822 -0.11639,0.10139 -0.32159,0.18933 -0.42483,0.26423 -0.10325,0.0749 -0.10325,0.1335 -0.26316,0.16149 -0.15991,0.028 -0.48238,0.028 -0.80749,0.028"
       id="path886"
       inkscape:original-d="m -215.62712,144.55849 c 0.14922,1.49773 0.2958,2.99281 0.43973,4.48525 -0.056,0.032 -0.11461,0.0613 -0.17589,0.0879 -0.0267,0.1199 -0.056,0.23717 -0.088,0.35178 -0.26119,0.2958 -0.52502,0.58895 -0.79151,0.87946 -0.0853,0.17854 -0.17324,0.35443 -0.26384,0.52768 -0.056,0.003 -0.11461,0.003 -0.17589,0 -0.0267,0.1199 -0.056,0.23716 -0.0879,0.35178 -0.20257,0.0906 -0.40777,0.17854 -0.61563,0.26384 0.003,0.0613 0.003,0.1199 0,0.17589 -0.31982,0.003 -0.64229,0.003 -0.9674,0"
       inkscape:path-effect="#path-effect888" />
    <path
       style="opacity:1;fill:#f6f5f4;fill-opacity:1;stroke:#f6f5f4;stroke-width:0.0879459"
       d="m -215.91508,150.30464 c 0.40959,-0.54429 0.76824,-1.11425 0.79722,-1.26694 0.029,-0.15265 -0.007,-0.94417 -0.0801,-1.75892 -0.073,-0.81475 -0.12442,-1.48975 -0.1142,-1.49999 0.0102,-0.0102 0.5275,1.19681 1.14948,2.68235 0.62198,1.48553 1.14691,2.73065 1.1665,2.76693 0.0196,0.0363 -0.79665,0.066 -1.8139,0.066 h -1.84953 z"
       id="path890" />
    <path
       style="opacity:1;fill:#f6f5f4;fill-opacity:1;stroke:#f6f5f4;stroke-width:0.0879459"
       d=""
       id="path892" />
    <path
       style="opacity:1;fill:#f6f5f4;fill-opacity:1;stroke:#f6f5f4;stroke-width:0.0879459"
       d=""
       id="path894" />
    <path
       style="fill:none;stroke:#f6f5f4;stroke-width:0.264583px;stroke-linecap:butt;stroke-linejoin:miter;stroke-opacity:1"
       d="m -215.53917,150.01114 c 0.0876,-0.46697 0.1755,-0.93601 0.26384,-1.40713"
       id="path911"
       inkscape:original-d="m -215.53917,150.01114 c 0.0906,-0.4664 0.17853,-0.93544 0.26384,-1.40713"
       inkscape:path-effect="#path-effect913" />
    <path
       style="fill:#f6f5f4;stroke:#f6f5f4;stroke-width:0.264583px;stroke-linecap:butt;stroke-linejoin:miter;stroke-opacity:1"
       d="m -214.65971,145.70179 c 0,0 -1.31919,5.01292 -1.31919,5.01292"
       id="path915"
       inkscape:original-d="m -214.65971,145.70179 -1.31919,5.01292"
       inkscape:path-effect="#path-effect917" />
    <path
       id="rect919-6"
       style="opacity:1;fill:#ff7800;fill-opacity:1;stroke:#ffffff;stroke-width:2.74092;stroke-miterlimit:4;stroke-dasharray:none;stroke-opacity:1"
       d="m 17.378452,52.309178 c -1.744897,0.08877 -3.405504,0.839223 -4.813631,1.886374 -1.93388,1.417762 -3.5841516,3.193548 -5.3284436,4.844341 -2.851374,2.739986 -5.77341,5.41358 -8.386536,8.406806 -1.714349,1.941672 -3.443701,3.869924 -5.105779,5.860617 -0.486848,0.602157 -1.023775,1.195679 -1.295238,1.943843 -0.575903,1.610571 -0.416048,3.505268 0.493216,4.950028 0.626717,1.026494 1.720069,1.694853 2.869462,1.856806 1.323975,0.251651 2.670731,0.320809 4.00720003,0.468006 7.96817697,0.741889 15.96574857,1.077921 23.96205157,1.260678 4.35926,0.06286 8.721276,-0.03453 13.072456,-0.321588 1.37087,-0.25381 2.53877,-1.271706 3.17841,-2.536622 0.89174,-1.768298 0.78484,-4.021008 -0.23812,-5.705257 -1.30191,-2.321439 -2.85024,-4.477741 -4.30434,-6.695762 -1.2408,-1.896089 -2.45525,-3.811228 -3.61886,-5.759763 -1.196188,-1.968706 -2.48336,-3.895419 -4.052903,-5.565162 -1.140279,-1.25725 -2.322211,-2.503945 -3.730573,-3.437754 -1.611316,-1.007635 -3.50724,-1.432702 -5.373465,-1.448937 -0.444892,-0.01135 -0.889932,-0.0068 -1.334907,-0.0066 z"
       inkscape:transform-center-x="41.779573"
       inkscape:transform-center-y="-1.6254028" />
    <ellipse
       style="opacity:1;fill:#ffff00;fill-opacity:1;stroke:#ffffff;stroke-width:2.46481;stroke-miterlimit:4;stroke-dasharray:none"
       id="path986"
       cx="-15.745323"
       cy="21.015274"
       rx="11.901244"
       ry="40.308369"
       transform="matrix(0.73575408,0.67724879,-0.60243756,0.79816601,0,0)" />
    <ellipse
       style="opacity:1;fill:#ffff00;fill-opacity:1;stroke:#ffffff;stroke-width:2.46481;stroke-miterlimit:4;stroke-dasharray:none"
       id="path986-4"
       cx="-95.002678"
       cy="85.981194"
       rx="11.901245"
       ry="40.308369"
       transform="matrix(-0.73575408,0.6772488,0.60243757,0.79816601,0,0)" />
    <path
       id="rect919-6-1"
       style="opacity:1;fill:#ff7800;fill-opacity:1;stroke:#ffffff;stroke-width:2.74093;stroke-miterlimit:4;stroke-dasharray:none;stroke-opacity:1"
       d="m 80.58432,52.183969 c 1.7449,0.08877 3.4055,0.839224 4.81363,1.886375 1.93388,1.417761 3.58416,3.193548 5.32845,4.84434 2.85138,2.739986 5.77341,5.413581 8.38654,8.406807 1.71434,1.941671 3.4437,3.869923 5.10578,5.860617 0.48684,0.602157 1.02377,1.195678 1.29524,1.943842 0.5759,1.610571 0.41604,3.505268 -0.49322,4.950028 -0.62672,1.026494 -1.72007,1.694853 -2.86946,1.856806 -1.32398,0.251651 -2.67074,0.320809 -4.0072,0.468006 -7.96818,0.74189 -15.96576,1.077921 -23.96205,1.260678 -4.35927,0.06286 -8.72128,-0.03453 -13.07246,-0.321588 -1.37087,-0.25381 -2.53877,-1.271705 -3.17841,-2.536622 -0.89174,-1.768298 -0.78484,-4.021008 0.23812,-5.705257 1.30191,-2.321438 2.85023,-4.477741 4.30434,-6.695762 1.2408,-1.896089 2.45525,-3.811228 3.61886,-5.759762 1.19618,-1.968707 2.48336,-3.895419 4.0529,-5.565163 1.14028,-1.25725 2.32221,-2.503944 3.73057,-3.437754 1.61132,-1.007635 3.50725,-1.432702 5.37347,-1.448936 0.44489,-0.01135 0.88993,-0.0068 1.3349,-0.0066 z"
       inkscape:transform-center-x="-41.779574"
       inkscape:transform-center-y="-1.6254028" />
    <path
       style="fill:#ff7800;stroke:#ffffff;stroke-width:2.39462;stroke-miterlimit:4;stroke-dasharray:none;stroke-opacity:1"
       d="m 47.47194,-61.678618 c -2.2961,0.718124 -4.34159,2.077694 -6.27097,3.525643 -3.19752,2.413271 -6.16853,5.128602 -9.14286,7.827594 -2.145194,1.984076 -4.27857,4.014476 -6.040651,6.383564 -0.535166,0.748298 -1.067788,1.536788 -1.300802,2.450033 -0.291673,1.362526 0.216037,2.852303 1.225235,3.760893 1.062673,1.086655 2.299931,1.960224 3.480132,2.898677 2.410836,1.840375 5.062796,3.395263 7.946736,4.264858 2.09869,0.646911 4.24641,1.12449 6.41584,1.427154 1.59862,0.223101 3.21601,0.30109 4.82712,0.212797 3.02945,-0.145056 6.02843,-0.707374 8.96421,-1.481506 3.00319,-0.821493 5.95576,-1.981832 8.55518,-3.774509 1.948,-1.354001 3.69961,-3.096031 4.82017,-5.257387 0.56635,-1.092107 0.94801,-2.357165 0.74123,-3.60584 -0.21854,-1.330713 -0.95861,-2.513359 -1.89688,-3.422501 -2.47721,-2.644253 -5.14487,-5.085086 -7.83652,-7.488164 -2.79531,-2.43965 -5.75437,-4.71428 -9.01358,-6.441075 -1.59009,-0.802602 -3.32659,-1.347113 -5.10295,-1.38325 -0.12355,0.03435 -0.2471,0.06868 -0.37064,0.103019 z"
       id="path66-1" />
    <text
       xml:space="preserve"
       id="text2616"
       style="font-style:normal;font-weight:normal;font-size:10.5833px;line-height:1.25;font-family:sans-serif;white-space:pre;shape-inside:url(#rect2618);fill:#000000;fill-opacity:1;stroke:none;" />
    <text
       xml:space="preserve"
       style="font-style:normal;font-weight:normal;font-size:50.8px;line-height:1.25;font-family:sans-serif;fill:#000000;fill-opacity:1;stroke:none;stroke-width:0.264583"
       x="-266.48758"
       y="62.665726"
       id="text2624"><tspan
         sodipodi:role="line"
         id="tspan2622"
         x="-266.48758"
         y="62.665726"
         style="font-size:50.8px;stroke-width:0.264583" /></text>
    <text
       xml:space="preserve"
       id="text2626"
       style="font-style:normal;font-weight:normal;font-size:10.5833px;line-height:1.25;font-family:sans-serif;white-space:pre;shape-inside:url(#rect2628);fill:#000000;fill-opacity:1;stroke:none;" />
    <text
       xml:space="preserve"
       id="text2638"
       style="font-style:normal;font-weight:normal;font-size:10.5833px;line-height:1.25;font-family:sans-serif;white-space:pre;shape-inside:url(#rect2640);fill:#000000;fill-opacity:1;stroke:none;" />
    <text
       xml:space="preserve"
       style="font-style:normal;font-weight:normal;font-size:10.5833px;line-height:1.25;font-family:sans-serif;fill:#000000;fill-opacity:1;stroke:none;stroke-width:0.264583"
       x="-245.59901"
       y="-225.97639"
       id="text2646"><tspan
         sodipodi:role="line"
         id="tspan2644"
         x="-245.59901"
         y="-225.97639"
         style="stroke-width:0.264583"></tspan></text>
    <text
       xml:space="preserve"
       id="text2654"
       style="font-style:normal;font-weight:normal;font-size:10.5833px;line-height:1.25;font-family:sans-serif;white-space:pre;shape-inside:url(#rect2656);fill:#000000;fill-opacity:1;stroke:none;" />
    <text
       xml:space="preserve"
       id="text2660"
       style="font-style:normal;font-weight:normal;font-size:10.5833px;line-height:1.25;font-family:sans-serif;white-space:pre;shape-inside:url(#rect2662);fill:#000000;fill-opacity:1;stroke:none;" />
    <text
       xml:space="preserve"
       id="text2666"
       style="font-style:normal;font-weight:normal;font-size:10.5833px;line-height:1.25;font-family:sans-serif;white-space:pre;shape-inside:url(#rect2668);fill:#000000;fill-opacity:1;stroke:none;" />
  </g>
</svg>
